<svg width="58" height="44" viewBox="0 0 58 44" fill="none" xmlns="http://www.w3.org/2000/svg">
<path id="Vector" d="M49.0289 3.5837C45.3589 1.91316 41.3854 0.700672 37.2464 0.000123938C37.2101 -0.00100934 37.174 0.0056407 37.1406 0.0196066C37.1073 0.0335725 37.0774 0.0545151 37.0532 0.080957C36.5565 0.970115 35.9771 2.12871 35.5908 3.01787C31.2006 2.37121 26.736 2.37121 22.3458 3.01787C21.9595 2.10177 21.38 0.970115 20.8558 0.080957C20.8282 0.0270687 20.7454 0.000123938 20.6626 0.000123938C16.5235 0.700672 12.5776 1.91316 8.8801 3.5837C8.8525 3.5837 8.82491 3.61064 8.79732 3.63759C1.29184 14.6039 -0.777689 25.2738 0.243277 35.8359C0.243277 35.8898 0.270871 35.9436 0.326058 35.9706C5.29292 39.5272 10.0666 41.6828 14.7851 43.1108C14.8679 43.1377 14.9507 43.1108 14.9783 43.0569C16.082 41.575 17.0754 40.0122 17.9308 38.3686C17.986 38.2608 17.9308 38.1531 17.8204 38.1261C16.2476 37.5333 14.7575 36.8328 13.2951 36.0245C13.1847 35.9706 13.1847 35.8089 13.2675 35.7281C13.571 35.5125 13.8746 35.27 14.1781 35.0545C14.2333 35.0006 14.3161 35.0006 14.3712 35.0275C23.8635 39.2578 34.1007 39.2578 43.4826 35.0275C43.5378 35.0006 43.6205 35.0006 43.6757 35.0545C43.9792 35.297 44.2828 35.5125 44.5863 35.755C44.6967 35.8359 44.6967 35.9975 44.5587 36.0514C43.1238 36.8867 41.6062 37.5603 40.0334 38.1531C39.923 38.18 39.8954 38.3147 39.923 38.3956C40.806 40.0392 41.7994 41.6019 42.8755 43.0838C42.9583 43.1108 43.0411 43.1377 43.1238 43.1108C47.87 41.6828 52.6437 39.5272 57.6105 35.9706C57.6657 35.9436 57.6933 35.8898 57.6933 35.8359C58.9074 23.6302 55.679 13.0411 49.1393 3.63759C49.1117 3.61064 49.0841 3.5837 49.0289 3.5837ZM19.3657 29.3962C16.5235 29.3962 14.1505 26.8365 14.1505 23.684C14.1505 20.5316 16.4684 17.9719 19.3657 17.9719C22.2906 17.9719 24.6085 20.5585 24.5809 23.684C24.5809 26.8365 22.263 29.3962 19.3657 29.3962ZM38.5985 29.3962C35.7563 29.3962 33.3833 26.8365 33.3833 23.684C33.3833 20.5316 35.7011 17.9719 38.5985 17.9719C41.5234 17.9719 43.8413 20.5585 43.8137 23.684C43.8137 26.8365 41.5234 29.3962 38.5985 29.3962Z" fill="#FFFAFA"/>
</svg>
