<svg width="49" height="50" viewBox="0 0 49 50" fill="none" xmlns="http://www.w3.org/2000/svg">
<path id="Vector" d="M43.5126 0.89624C44.9422 0.89624 46.3132 1.46414 47.3241 2.47501C48.3349 3.48587 48.9028 4.8569 48.9028 6.28648V44.0182C48.9028 45.4478 48.3349 46.8188 47.3241 47.8297C46.3132 48.8405 44.9422 49.4084 43.5126 49.4084H5.78087C4.35129 49.4084 2.98026 48.8405 1.96939 47.8297C0.958524 46.8188 0.390625 45.4478 0.390625 44.0182V6.28648C0.390625 4.8569 0.958524 3.48587 1.96939 2.47501C2.98026 1.46414 4.35129 0.89624 5.78087 0.89624H43.5126ZM42.165 42.6706V28.3865C42.165 26.0563 41.2393 23.8215 39.5916 22.1738C37.9439 20.5261 35.7091 19.6004 33.3789 19.6004C31.0881 19.6004 28.4199 21.0019 27.1262 23.104V20.1125H19.6068V42.6706H27.1262V29.3837C27.1262 27.3084 28.7972 25.6105 30.8725 25.6105C31.8732 25.6105 32.8329 26.008 33.5405 26.7156C34.2481 27.4233 34.6456 28.383 34.6456 29.3837V42.6706H42.165ZM10.8477 15.8811C12.0485 15.8811 13.2002 15.4041 14.0493 14.555C14.8985 13.7058 15.3755 12.5542 15.3755 11.3533C15.3755 8.84685 13.3542 6.79856 10.8477 6.79856C9.6397 6.79856 8.48118 7.27843 7.627 8.13261C6.77282 8.9868 6.29294 10.1453 6.29294 11.3533C6.29294 13.8598 8.34124 15.8811 10.8477 15.8811ZM14.5939 42.6706V20.1125H7.12843V42.6706H14.5939Z" fill="#FFFAFA"/>
</svg>
