<svg width="49" height="40" viewBox="0 0 49 40" fill="none" xmlns="http://www.w3.org/2000/svg">
<path id="Vector" d="M5.24184 39.6098C3.90776 39.6098 2.76611 39.1319 1.81688 38.1761C0.867662 37.2202 0.392242 36.0699 0.390625 34.7249V5.41543C0.390625 4.07208 0.866045 2.92249 1.81688 1.96668C2.76772 1.01087 3.90938 0.532146 5.24184 0.530518H44.0516C45.3857 0.530518 46.5281 1.00924 47.479 1.96668C48.4298 2.92412 48.9044 4.0737 48.9028 5.41543V34.7249C48.9028 36.0682 48.4282 37.2186 47.479 38.1761C46.5298 39.1335 45.3873 39.6114 44.0516 39.6098H5.24184ZM24.6467 22.5126L44.0516 10.3003V5.41543L24.6467 17.6277L5.24184 5.41543V10.3003L24.6467 22.5126Z" fill="white"/>
</svg>
